<svg width="1728" height="1117" viewBox="0 0 1728 1117" fill="none" xmlns="http://www.w3.org/2000/svg">
<rect width="1728" height="1117" fill="#141416"/>
<g filter="url(#filter0_f_14_112)">
<rect x="144" y="65.068" width="118" height="23.4968" rx="11.7484" fill="#283325"/>
<rect x="-2" y="54.2233" width="118" height="34.3414" rx="17.1707" fill="#282C33"/>
<rect x="-2" y="110.254" width="118" height="25.3042" rx="12.6521" fill="#4D3661"/>
<rect x="128" y="110.254" width="239" height="25.3042" rx="12.6521" fill="#1B2D3C"/>
<path d="M0 229.5C0 222.596 5.59644 217 12.5 217H124C135.046 217 144 225.954 144 237V242H12.5C5.59644 242 0 236.404 0 229.5Z" fill="#502E34"/>
<path d="M-8 276.5C-8 269.596 -2.40356 264 4.5 264H42V289H4.5C-2.40356 289 -8 283.404 -8 276.5Z" fill="#574B31"/>
<rect x="54" y="263.887" width="180" height="25.3042" rx="12.6521" fill="#22445F"/>
<rect x="23" y="328.955" width="150" height="25.3042" rx="12.6521" fill="#36482B"/>
<rect x="16" y="394.023" width="100" height="25.3042" rx="12.6521" fill="#20242A"/>
<rect x="139" y="394.023" width="211" height="25.3042" rx="12.6521" fill="#443156"/>
<rect x="-8" y="643" width="118" height="26" rx="13" fill="#3A4F2E"/>
<rect x="39" y="699.481" width="233" height="25.3042" rx="12.6521" fill="#522E34"/>
<rect x="1" y="755.511" width="157" height="25.3042" rx="12.6521" fill="#23272D"/>
<rect x="98" y="820.579" width="157" height="25.3042" rx="12.6521" fill="#22445F"/>
<path d="M-8 985C-8 977.82 -2.1797 972 5 972H110V998H5C-2.1797 998 -8 992.18 -8 985Z" fill="#574B31"/>
<rect x="-1" y="1037.47" width="205" height="25.3042" rx="12.6521" fill="#282C33"/>
<rect x="1369" y="1037.47" width="205" height="25.3042" rx="12.6521" fill="#443156"/>
<path d="M1603 1050C1603 1042.82 1608.82 1037 1616 1037H1728V1063H1616C1608.82 1063 1603 1057.18 1603 1050Z" fill="#502E34"/>
<rect x="1437" y="985.057" width="205" height="25.3042" rx="12.6521" fill="#22445F"/>
<path d="M1661 997.5C1661 990.596 1666.6 985 1673.5 985H1728V1010H1673.5C1666.6 1010 1661 1004.4 1661 997.5Z" fill="#574B31"/>
<path d="M1540 820.5C1540 813.596 1545.6 808 1552.5 808H1728V833H1552.5C1545.6 833 1540 827.404 1540 820.5Z" fill="#3A4F2E"/>
<rect x="1369" y="742.859" width="205" height="25.3042" rx="12.6521" fill="#502E34"/>
<path d="M1603 755.5C1603 748.596 1608.6 743 1615.5 743H1728V768H1615.5C1608.6 768 1603 762.404 1603 755.5Z" fill="#4D3661"/>
<rect x="1456" y="643.45" width="205" height="25.3042" rx="12.6521" fill="#23272D"/>
<path d="M1624 603.5C1624 596.596 1629.6 591 1636.5 591H1728V616H1636.5C1629.6 616 1624 610.404 1624 603.5Z" fill="#1B2D3C"/>
<path d="M1540 473.5C1540 466.596 1545.6 461 1552.5 461H1728V486H1552.5C1545.6 486 1540 480.404 1540 473.5Z" fill="#283325"/>
<rect x="1369" y="395.83" width="153" height="25.3042" rx="12.6521" fill="#22445F"/>
<rect x="1566" y="394.023" width="115" height="25.3042" rx="12.6521" fill="#522E34"/>
<path d="M1687 343.5C1687 336.596 1692.6 331 1699.5 331H1728V356H1699.5C1692.6 356 1687 350.404 1687 343.5Z" fill="#36482B"/>
<path d="M1559 255C1559 247.82 1564.82 242 1572 242H1728V268H1572C1564.82 268 1559 262.18 1559 255Z" fill="#20242A"/>
<path d="M1540 148.5C1540 141.596 1545.6 136 1552.5 136H1728V161H1552.5C1545.6 161 1540 155.404 1540 148.5Z" fill="#574B31"/>
</g>
<defs>
<filter id="filter0_f_14_112" x="-20" y="42.2233" width="1760" height="1032.78" filterUnits="userSpaceOnUse" color-interpolation-filters="sRGB">
<feFlood flood-opacity="0" result="BackgroundImageFix"/>
<feBlend mode="normal" in="SourceGraphic" in2="BackgroundImageFix" result="shape"/>
<feGaussianBlur stdDeviation="6" result="effect1_foregroundBlur_14_112"/>
</filter>
</defs>
</svg>
