<svg width="40" height="40" viewBox="0 0 40 40" fill="none" xmlns="http://www.w3.org/2000/svg">
<g clip-path="url(#clip0_48_52)">
<path d="M22.6556 30.7334L33.3333 20L22.6556 9.26669C22.5591 9.14005 22.4366 9.03561 22.2963 8.96044C22.156 8.88527 22.0012 8.84113 21.8423 8.83099C21.6835 8.82085 21.5243 8.84497 21.3756 8.9017C21.2269 8.95843 21.0921 9.04645 20.9803 9.1598C20.8686 9.27316 20.7825 9.4092 20.7279 9.55872C20.6733 9.70823 20.6514 9.86774 20.6638 10.0264C20.6763 10.1851 20.7226 10.3393 20.7998 10.4785C20.8769 10.6177 20.9831 10.7387 21.1111 10.8334L29.1 18.8889H7.84446C7.54977 18.8889 7.26716 19.006 7.05878 19.2143C6.85041 19.4227 6.73335 19.7053 6.73335 20C6.73335 20.2947 6.85041 20.5773 7.05878 20.7857C7.26716 20.9941 7.54977 21.1111 7.84446 21.1111H29.1L21.1111 29.1667C20.9034 29.3759 20.7872 29.6591 20.7883 29.954C20.7893 30.2488 20.9075 30.5312 21.1167 30.7389C21.3259 30.9467 21.6091 31.0628 21.9039 31.0618C22.1988 31.0607 22.4811 30.9426 22.6889 30.7334H22.6556Z" fill="#809DE9"/>
</g>
<defs>
<clipPath id="clip0_48_52">
<rect width="40" height="40" fill="white" transform="matrix(0 1 -1 0 40 0)"/>
</clipPath>
</defs>
</svg>
