<svg width="120" height="120" viewBox="0 0 120 120" fill="none" xmlns="http://www.w3.org/2000/svg">
<path d="M14.0484 25.98C13.8262 19.591 18.8034 13.6997 25.5319 13.6997H94.4756C101.204 13.6997 106.181 19.591 105.959 25.98C105.745 32.1169 106.023 40.0669 108.023 46.5488C110.031 53.0513 113.415 57.1603 118.958 57.6891V63.6769C113.415 64.2056 110.031 68.3147 108.023 74.8172C106.023 81.2991 105.745 89.2491 105.959 95.386C106.181 101.775 101.204 107.665 94.4756 107.665H25.5319C18.8034 107.665 13.8262 101.774 14.0484 95.386C14.2622 89.2491 13.9847 81.2991 11.9831 74.8172C9.97686 68.3156 6.58311 64.2056 1.03967 63.6769V57.6891C6.58311 57.1613 9.97686 53.0513 11.9831 46.5488C13.9847 40.0669 14.2612 32.1169 14.0484 25.98Z" fill="white"/>
<g filter="url(#filter0_d_38_71)">
<path d="M62.9154 86.0028C73.8082 86.0028 80.3721 80.6694 80.3721 71.8724C80.3721 65.2228 75.6886 60.4087 68.7343 59.6466V59.3695C73.8436 58.5383 77.853 53.7936 77.853 48.4947C77.853 40.9446 71.8922 36.0264 62.809 36.0264H42.3716V86.0028H62.9154ZM50.3195 42.3644H60.893C66.641 42.3644 69.9052 44.9272 69.9052 49.5681C69.9052 54.5209 66.1088 57.2915 59.2254 57.2915H50.3195V42.3644ZM50.3195 79.6648V63.2138H60.8219C68.3439 63.2138 72.2469 65.9844 72.2469 71.3874C72.2469 76.7901 68.4505 79.6648 61.2832 79.6648H50.3195Z" fill="black"/>
</g>
<defs>
<filter id="filter0_d_38_71" x="41.8803" y="35.6579" width="38.9831" height="50.9592" filterUnits="userSpaceOnUse" color-interpolation-filters="sRGB">
<feFlood flood-opacity="0" result="BackgroundImageFix"/>
<feColorMatrix in="SourceAlpha" type="matrix" values="0 0 0 0 0 0 0 0 0 0 0 0 0 0 0 0 0 0 127 0" result="hardAlpha"/>
<feOffset dy="0.12283"/>
<feGaussianBlur stdDeviation="0.24566"/>
<feColorMatrix type="matrix" values="0 0 0 0 0 0 0 0 0 0 0 0 0 0 0 0 0 0 0.15 0"/>
<feBlend mode="normal" in2="BackgroundImageFix" result="effect1_dropShadow_38_71"/>
<feBlend mode="normal" in="SourceGraphic" in2="effect1_dropShadow_38_71" result="shape"/>
</filter>
</defs>
</svg>
