<svg width="120" height="120" viewBox="0 0 120 120" fill="none" xmlns="http://www.w3.org/2000/svg">
<path d="M17.6381 106.99L8.21252 1.26758H111.788L102.353 106.974L59.9372 118.734L17.6381 106.99Z" fill="white"/>
<path d="M60.001 109.746L94.275 100.243L102.338 9.91113H60.001V109.746Z" fill="white"/>
<path d="M60.001 48.2146H77.1591L78.3441 34.9368H60.001V21.9702H92.5154L92.2041 25.4493L89.0166 61.1812H60.001V48.2146Z" fill="black"/>
<path d="M60.0778 81.8898L60.0206 81.9066L45.5803 78.0076L44.6568 67.666H31.6425L33.4584 88.0257L60.0187 95.3973L60.0778 95.3804V81.8898Z" fill="black"/>
<path d="M76.0566 60.6328L74.4947 77.9972L60.0328 81.9009V95.3916L86.6147 88.0247L86.8097 85.8337L89.0653 60.6328H76.0566Z" fill="black"/>
<path d="M60.045 21.9702V34.9368H28.725L28.4653 32.023L27.8746 25.4493L27.5643 21.9702H60.045ZM60.0009 48.2165V61.183H45.7425L45.4828 58.2693L44.8912 51.6955L44.5818 48.2165H60.0009Z" fill="black"/>
</svg>
