<svg width="120" height="120" viewBox="0 0 120 120" fill="none" xmlns="http://www.w3.org/2000/svg">
<path fill-rule="evenodd" clip-rule="evenodd" d="M43.335 47.085C41.639 47.085 39.9595 47.4191 38.3926 48.0681C36.8257 48.7171 35.402 49.6684 34.2027 50.8677C33.0034 52.067 32.0521 53.4907 31.4031 55.0576C30.754 56.6246 30.42 58.304 30.42 60C30.42 61.696 30.754 63.3754 31.4031 64.9424C32.0521 66.5093 33.0034 67.933 34.2027 69.1323C35.402 70.3316 36.8257 71.2829 38.3926 71.9319C39.9595 72.581 41.639 72.915 43.335 72.915H56.25V47.085H43.335ZM56.25 39.585H43.335C39.909 39.585 36.6234 38.2241 34.2009 35.8016C31.7784 33.3791 30.4175 30.0934 30.4175 26.6675C30.4175 23.2416 31.7784 19.9559 34.2009 17.5334C36.6234 15.1109 39.909 13.75 43.335 13.75H56.25V39.585ZM63.75 13.75V39.585H76.665C80.0469 39.5185 83.2679 38.1283 85.6361 35.713C88.0043 33.2978 89.3308 30.0501 89.3308 26.6675C89.3308 23.2849 88.0043 20.0372 85.6361 17.622C83.2679 15.2067 80.0469 13.8165 76.665 13.75H63.75ZM76.665 47.08C73.2749 47.0796 70.0206 48.4121 67.6044 50.79C65.1882 53.1678 63.8038 56.4004 63.75 59.79V60.205C63.7914 62.75 64.5839 65.226 66.0279 67.3221C67.4719 69.4181 69.5032 71.0408 71.8664 71.9861C74.2297 72.9315 76.8196 73.1575 79.3108 72.6357C81.8021 72.1139 84.0837 70.8676 85.8689 69.0533C87.6542 67.2391 88.8635 64.9377 89.345 62.4384C89.8266 59.939 89.5589 57.3531 88.5755 55.0054C87.5921 52.6577 85.9369 50.6529 83.8179 49.2428C81.6988 47.8328 79.2103 47.0803 76.665 47.08ZM43.335 80.415C40.7794 80.414 38.281 81.1709 36.1556 82.59C34.0303 84.0091 32.3735 86.0265 31.3949 88.3873C30.4162 90.748 30.1597 93.3459 30.6576 95.8525C31.1556 98.3591 32.3857 100.662 34.1924 102.469C35.9991 104.276 38.3012 105.507 40.8076 106.006C43.3139 106.505 45.912 106.25 48.2731 105.272C50.6342 104.294 52.6523 102.638 54.0722 100.513C55.4921 98.3887 56.25 95.8906 56.25 93.335V80.415H43.335Z" fill="white"/>
</svg>
