<svg width="120" height="120" viewBox="0 0 120 120" fill="none" xmlns="http://www.w3.org/2000/svg">
<path d="M13 52.9501L41.9 24.0001L50.35 32.5001C49.15 36.7501 51.1 41.4001 55 43.6501V71.3501C52 73.0501 50 76.3001 50 80.0001C50 82.6523 51.0535 85.1958 52.9289 87.0712C54.8043 88.9465 57.3478 90.0001 60 90.0001C62.6521 90.0001 65.1957 88.9465 67.071 87.0712C68.9464 85.1958 70 82.6523 70 80.0001C70 76.3001 68 73.0501 65 71.3501V47.0501L75.35 57.5001C75 58.2501 75 59.1001 75 60.0001C75 62.6523 76.0536 65.1958 77.9289 67.0712C79.8043 68.9465 82.3478 70.0001 85 70.0001C87.6521 70.0001 90.1957 68.9465 92.071 67.0712C93.9464 65.1958 95 62.6523 95 60.0001C95 57.3479 93.9464 54.8044 92.071 52.929C90.1957 51.0537 87.6521 50.0001 85 50.0001C84.1 50.0001 83.25 50.0001 82.5 50.3501L69.65 37.5001C70.2708 35.1843 70.0301 32.7218 68.9726 30.5701C67.9151 28.4183 66.1127 26.7234 63.9 25.8001C61.75 25.0001 59.5 24.8001 57.5 25.3501L49 16.9001L52.95 13.0001C56.85 9.0501 63.15 9.0501 67.05 13.0001L107 52.9501C110.95 56.8501 110.95 63.1501 107 67.0501L67.05 107C63.15 110.95 56.85 110.95 52.95 107L13 67.0501C9.04998 63.1501 9.04998 56.8501 13 52.9501Z" fill="white"/>
</svg>
