<svg width="120" height="120" viewBox="0 0 120 120" fill="none" xmlns="http://www.w3.org/2000/svg">
<path d="M17.8472 106.759L8.46753 1.55713H111.533L102.143 106.743L59.9372 118.443L17.8472 106.759Z" fill="white"/>
<path d="M60 109.5L94.1044 100.044L102.128 10.1587H60V109.5Z" fill="white"/>
<path d="M60 49.1765H42.9262L41.7469 35.9634H60V23.0615H27.6459L27.9553 26.5228L31.1259 62.0793H60V49.1765ZM60 82.6856L59.9428 82.7015L45.5737 78.8203L44.6559 68.5312H31.7025L33.51 88.7896L59.9409 96.1265L60 96.1106V82.6856Z" fill="black"/>
<path d="M59.955 49.1765V62.0793H75.8428L74.3456 78.8128L59.955 82.6968V96.1209L86.4066 88.7896L86.6006 86.61L89.6325 52.6415L89.9466 49.1765H86.4703H59.955ZM59.955 23.0615V35.9634H91.1213L91.38 33.0646L91.9688 26.5228L92.2772 23.0615H59.955Z" fill="black"/>
</svg>
