<svg width="120" height="120" viewBox="0 0 120 120" fill="none" xmlns="http://www.w3.org/2000/svg">
<path d="M49.2947 63.5785C49.2947 63.5785 46.216 65.3701 51.4894 65.9757C57.8775 66.7051 61.1428 66.6001 68.1816 65.2698C68.1816 65.2698 70.0369 66.4295 72.6206 67.4345C56.8369 74.1966 36.8981 67.0426 49.2947 63.5785ZM47.3644 54.752C47.3644 54.752 43.9106 57.3104 49.1878 57.856C56.0128 58.5601 61.4006 58.6182 70.7306 56.822C70.7306 56.822 72.0178 58.1307 74.0456 58.8441C54.9656 64.426 33.7135 59.2838 47.3644 54.752Z" fill="white"/>
<path d="M63.6234 39.779C67.515 44.2584 62.6035 48.2858 62.6035 48.2858C62.6035 48.2858 72.4781 43.1887 67.9435 36.8034C63.7069 30.8512 60.4603 27.8952 78.0413 17.699C78.0413 17.699 50.4431 24.5896 63.6234 39.779Z" fill="white"/>
<path d="M84.4988 70.1073C84.4988 70.1073 86.7788 71.987 81.9881 73.4401C72.8794 76.1992 44.0719 77.0317 36.0703 73.5498C33.1959 72.2982 38.5894 70.562 40.2853 70.1973C42.0544 69.8139 43.065 69.8842 43.065 69.8842C39.8663 67.6314 22.3884 74.3082 34.1878 76.2236C66.3666 81.4389 92.8444 73.8742 84.4988 70.1073ZM50.7769 45.6067C50.7769 45.6067 36.1247 49.0876 45.5888 50.3532C49.5863 50.8876 57.5494 50.7648 64.9725 50.1423C71.0372 49.6332 77.1234 48.5448 77.1234 48.5448C77.1234 48.5448 74.9869 49.4617 73.4391 50.5173C58.5572 54.4314 29.8144 52.6079 38.0897 48.6067C45.0863 45.2214 50.7769 45.6067 50.7769 45.6067ZM77.0625 60.2973C92.1891 52.4392 85.1944 44.8867 80.3128 45.9039C79.1194 46.1532 78.5831 46.3689 78.5831 46.3689C78.5831 46.3689 79.0284 45.6714 79.875 45.3723C89.5331 41.9786 96.9591 55.3857 76.7606 60.6957C76.7606 60.6957 76.9922 60.4857 77.0625 60.2973Z" fill="white"/>
<path d="M67.9444 1.23096C67.9444 1.23096 76.3209 9.61127 59.9981 22.4953C46.9088 32.8331 57.0131 38.7263 59.9925 45.4622C52.3519 38.5678 46.7475 32.4985 50.5069 26.851C56.0278 18.5616 71.3231 14.5406 67.9444 1.23096Z" fill="white"/>
<path d="M52.2647 81.599C66.781 82.5271 89.0794 81.0824 89.6072 74.2134C89.6072 74.2134 88.5928 76.8168 77.6081 78.8831C65.2163 81.2156 49.9303 80.9446 40.8666 79.4484C40.8666 79.4484 42.7228 80.9859 52.2647 81.599Z" fill="white"/>
<path d="M88.9369 93.9196H88.4944V93.6721H89.685V93.9196H89.2444V95.1543H88.9359L88.9369 93.9196ZM91.3134 93.9815H91.3078L90.8691 95.1543H90.6666L90.2306 93.9815H90.2259V95.1543H89.9334V93.6721H90.3619L90.7659 94.7211L91.1709 93.6721H91.5966V95.1543H91.3134V93.9815ZM49.8853 107.847C48.5166 109.034 47.0691 109.701 45.7687 109.701C43.9181 109.701 42.9141 108.59 42.9141 106.809C42.9141 104.883 43.9884 103.472 48.2934 103.472H49.8844L49.8853 107.847ZM53.6644 112.111V98.9136C53.6644 95.5396 51.7397 93.314 47.1047 93.314C44.3991 93.314 42.0272 93.9833 40.0987 94.8346L40.6537 97.1718C42.1725 96.614 44.1366 96.0965 46.0641 96.0965C48.7359 96.0965 49.8844 97.1718 49.8844 99.3974V101.065H48.5494C42.0609 101.065 39.1331 103.582 39.1331 107.368C39.1331 110.63 41.0625 112.483 44.6953 112.483C47.0297 112.483 48.7744 111.519 50.4028 110.108L50.6991 112.112L53.6644 112.111ZM66.2756 112.111H61.5628L55.89 93.6524H60.0066L63.5278 104.995L64.3106 108.403C66.0881 103.474 67.3481 98.4693 67.9781 93.6533H71.9822C70.9106 99.7293 68.9794 106.401 66.2756 112.111ZM84.3581 107.847C82.9847 109.034 81.5362 109.701 80.2406 109.701C78.3881 109.701 77.385 108.59 77.385 106.809C77.385 104.883 78.4622 103.472 82.7625 103.472H84.3572L84.3581 107.847ZM88.1391 112.111V98.9136C88.1391 95.5396 86.2087 93.314 81.5775 93.314C78.8691 93.314 76.4981 93.9833 74.5697 94.8346L75.1256 97.1718C76.6444 96.614 78.6112 96.0965 80.5387 96.0965C83.2069 96.0965 84.3581 97.1718 84.3581 99.3974V101.065H83.0231C76.5328 101.065 73.6059 103.582 73.6059 107.368C73.6059 110.63 75.5334 112.483 79.1653 112.483C81.5006 112.483 83.2425 111.519 84.8756 110.108L85.1737 112.112L88.1391 112.111ZM34.9894 115.248C33.9141 116.822 32.1722 118.068 30.2672 118.77L28.4025 116.571C29.8528 115.827 31.095 114.626 31.6734 113.507C32.1722 112.51 32.3794 111.229 32.3794 108.162V87.0852H36.3956V107.872C36.3956 111.974 36.0694 113.632 34.9894 115.248Z" fill="white"/>
</svg>
