<svg width="120" height="120" viewBox="0 0 120 120" fill="none" xmlns="http://www.w3.org/2000/svg">
<path d="M60 9.25C58.65 9.25 57.25 9.6 56.1 10.25L18.9 31.75C16.5 33.15 15 35.75 15 38.55V81.45C15 84.25 16.5 86.85 18.9 88.25L28.65 93.85C33.4 96.15 35 96.2 37.2 96.2C44.2 96.2 48.25 91.95 48.25 84.55V42.2C48.25 41.6 47.75 41.1 47.15 41.1H42.5C41.85 41.1 41.35 41.6 41.35 42.2V84.55C41.35 87.85 37.95 91.1 32.5 88.35L22.25 82.5C22.0817 82.3811 21.944 82.2239 21.8484 82.0413C21.7527 81.8588 21.7019 81.6561 21.7 81.45V38.55C21.7 38.1 21.9 37.7 22.25 37.5L59.45 16.05C59.75 15.85 60.25 15.85 60.55 16.05L97.75 37.5C98.1 37.7 98.3 38.1 98.3 38.55V81.45C98.3 81.85 98.1 82.25 97.75 82.5L60.55 103.95C60.25 104.15 59.75 104.15 59.4 103.95L50 98.25C49.6 98.1 49.2 98.05 48.95 98.2C46.3 99.7 45.8 100 43.35 100.75C42.75 100.95 41.8 101.3 43.7 102.35L56.1 109.7C57.3 110.4 58.6 110.75 60 110.75C61.4 110.75 62.7 110.4 63.9 109.7L101.1 88.25C103.5 86.85 105 84.25 105 81.45V38.55C105 35.75 103.5 33.15 101.1 31.75L63.9 10.25C62.75 9.6 61.4 9.25 60 9.25ZM70 40C59.4 40 53.05 44.45 53.05 51.95C53.05 60 59.35 62.35 69.55 63.35C81.7 64.55 82.65 66.35 82.65 68.75C82.65 72.9 79.3 74.65 71.5 74.65C61.6 74.65 59.5 72.2 58.75 67.3C58.6974 67.0467 58.5594 66.8192 58.3592 66.6554C58.159 66.4916 57.9087 66.4015 57.65 66.4H52.85C52.25 66.4 51.8 66.85 51.8 67.5C51.8 73.7 55.2 81.2 71.5 81.2C83.25 81.2 90 76.55 90 68.45C90 60.4 84.6 58.3 73.15 56.75C61.6 55.25 60.45 54.45 60.45 51.75C60.45 49.5 61.45 46.5 70 46.5C77.5 46.5 80.45 48.15 81.6 53.3C81.7 53.8 82.15 54.15 82.65 54.15H87.5C87.75 54.15 88.05 54.05 88.25 53.8C88.45 53.6 88.6 53.3 88.5 53C87.8 44.1 81.9 40 70 40Z" fill="white"/>
</svg>
