<svg width="120" height="120" viewBox="0 0 120 120" fill="none" xmlns="http://www.w3.org/2000/svg">
<path d="M70 15V35C70 36.3261 70.5268 37.5979 71.4645 38.5355C72.4021 39.4732 73.6739 40 75 40H95" stroke="white" stroke-width="4" stroke-linecap="round" stroke-linejoin="round"/>
<path d="M70 15V35C70 36.3261 70.5268 37.5979 71.4645 38.5355C72.4021 39.4732 73.6739 40 75 40H95M25 101.25C25 103.32 26.68 105 28.75 105H35C36.3261 105 37.5979 104.473 38.5355 103.536C39.4732 102.598 40 101.326 40 100V95C40 93.6739 39.4732 92.4021 38.5355 91.4645C37.5979 90.5268 36.3261 90 35 90H30C28.6739 90 27.4021 89.4732 26.4645 88.5355C25.5268 87.5979 25 86.3261 25 85V80C25 78.6739 25.5268 77.4021 26.4645 76.4645C27.4021 75.5268 28.6739 75 30 75H36.25C37.2446 75 38.1984 75.3951 38.9017 76.0984C39.6049 76.8016 40 77.7554 40 78.75" stroke="white" stroke-width="4" stroke-linecap="round" stroke-linejoin="round"/>
<path d="M25 60V25C25 22.3478 26.0536 19.8043 27.9289 17.9289C29.8043 16.0536 32.3478 15 35 15H70L95 40V60M90 75V105H100M70 100L77.5 107.5M65 75C67.6522 75 70.1957 76.0536 72.0711 77.9289C73.9464 79.8043 75 82.3478 75 85V95C75 97.6522 73.9464 100.196 72.0711 102.071C70.1957 103.946 67.6522 105 65 105C62.3478 105 59.8043 103.946 57.9289 102.071C56.0536 100.196 55 97.6522 55 95V85C55 82.3478 56.0536 79.8043 57.9289 77.9289C59.8043 76.0536 62.3478 75 65 75Z" stroke="white" stroke-width="4" stroke-linecap="round" stroke-linejoin="round"/>
</svg>
