<svg width="120" height="120" viewBox="0 0 120 120" fill="none" xmlns="http://www.w3.org/2000/svg">
<path d="M60 30C46.65 30 38.35 36.65 35 50C40 43.35 45.85 40.85 52.5 42.5C56.3 43.45 59.05 46.2 62.05 49.25C66.95 54.25 72.5 60 85 60C98.35 60 106.65 53.35 110 40C105 46.65 99.15 49.15 92.5 47.5C88.7 46.55 86 43.8 82.95 40.75C78.05 35.75 72.5 30 60 30ZM35 60C21.65 60 13.35 66.65 10 80C15 73.35 20.85 70.85 27.5 72.5C31.3 73.45 34 76.2 37.05 79.25C41.95 84.25 47.5 90 60 90C73.35 90 81.65 83.35 85 70C80 76.65 74.15 79.15 67.5 77.5C63.7 76.55 61 73.8 57.95 70.75C53.05 65.75 47.5 60 35 60Z" fill="white"/>
</svg>
