<svg width="120" height="120" viewBox="0 0 120 120" fill="none" xmlns="http://www.w3.org/2000/svg">
<path d="M98.535 19.6999C99.5121 18.0399 101.09 16.8195 102.943 16.2915C104.795 15.7635 106.78 15.9685 108.485 16.864C110.191 17.7594 111.486 19.2767 112.103 21.1013C112.72 22.926 112.612 24.9181 111.8 26.6649L111.465 27.3049L66.465 103.805C65.8335 104.878 64.9447 105.777 63.8788 106.421C62.8129 107.065 61.6035 107.433 60.3597 107.493C59.1158 107.552 57.8768 107.301 56.7543 106.762C55.6318 106.223 54.6612 105.413 53.93 104.405L53.535 103.805L8.53501 27.3049C7.55252 25.6439 7.24809 23.6682 7.68502 21.7885C8.12195 19.9088 9.26661 18.2699 10.881 17.2125C12.4953 16.1552 14.4551 15.7608 16.3528 16.1114C18.2505 16.462 19.94 17.5306 21.07 19.0949L21.465 19.6949L60 85.2149L98.535 19.6999ZM74.135 19.6749C75.1121 18.0149 76.6903 16.7945 78.5428 16.2665C80.3952 15.7385 82.3797 15.9435 84.0851 16.839C85.7905 17.7344 87.086 19.2517 87.7032 21.0763C88.3203 22.901 88.2117 24.8931 87.4 26.6399L87.065 27.2799L66.465 62.2999C65.8339 63.3734 64.9455 64.2729 63.8798 64.9172C62.8142 65.5615 61.6049 65.9303 60.361 65.9903C59.1172 66.0504 57.878 65.7997 56.7552 65.2611C55.6325 64.7224 54.6615 63.9127 53.93 62.9049L53.535 62.3049L32.95 27.2999C31.9675 25.6389 31.6631 23.6632 32.1 21.7835C32.5369 19.9038 33.6816 18.2649 35.296 17.2075C36.9103 16.1502 38.8701 15.7558 40.7678 16.1064C42.6655 16.457 44.355 17.5256 45.485 19.0899L45.88 19.6899L60 43.7149L74.135 19.6749Z" fill="white"/>
</svg>
